<svg id="Layer_1" data-name="Layer 1" xmlns="http://www.w3.org/2000/svg" xmlns:xlink="http://www.w3.org/1999/xlink" viewBox="0 0 836.41 263.08"><defs><linearGradient id="linear-gradient" x1="441.94" y1="301.94" x2="386.82" y2="335.41" gradientUnits="userSpaceOnUse"><stop offset="0.16" stop-color="#2fbb9a"/><stop offset="0.9" stop-color="#46dfa8"/></linearGradient><linearGradient id="linear-gradient-2" x1="404.29" y1="302.12" x2="374.43" y2="401.81" xlink:href="#linear-gradient"/><linearGradient id="linear-gradient-3" x1="499.21" y1="440.6" x2="304.91" y2="392.71" gradientUnits="userSpaceOnUse"><stop offset="0" stop-color="#ffc252"/><stop offset="1" stop-color="#ff902b"/></linearGradient><linearGradient id="linear-gradient-4" x1="377.16" y1="520.51" x2="347.29" y2="333.34" xlink:href="#linear-gradient-3"/><linearGradient id="linear-gradient-5" x1="269.65" y1="460.09" x2="341.14" y2="297.56" xlink:href="#linear-gradient-3"/><linearGradient id="linear-gradient-6" x1="454.72" y1="307.65" x2="391.53" y2="497.22" gradientUnits="userSpaceOnUse"><stop offset="0.03" stop-color="#ffc252"/><stop offset="1" stop-color="#ff902b"/></linearGradient><linearGradient id="linear-gradient-7" x1="421.36" y1="285.17" x2="463.3" y2="447.03" gradientUnits="userSpaceOnUse"><stop offset="0" stop-color="#ffc252"/><stop offset="0.91" stop-color="#ff902b"/></linearGradient></defs><path d="M425.78,281.46a18.16,18.16,0,0,0-18.16-18.16,42.29,42.29,0,0,0-42.25,42.24V382.8a18.16,18.16,0,0,0,36.32,0V315.64a18.16,18.16,0,0,1,11.76-17A18.15,18.15,0,0,0,425.78,281.46Z" transform="translate(-264.05 -263.3)" style="fill:url(#linear-gradient)"/><path d="M365.37,364.09V382.8a18.16,18.16,0,0,0,36.32,0V315.64a18.15,18.15,0,0,1,11.4-16.84A75.48,75.48,0,0,0,365.37,364.09Z" transform="translate(-264.05 -263.3)" style="fill:url(#linear-gradient-2)"/><path d="M468,465.69a101.32,101.32,0,0,1-143.29,0,83.15,83.15,0,0,1,0-117.59A101.32,101.32,0,0,0,468,491.39c.16-.17.31-.33.48-.49a119.51,119.51,0,0,0,2-165.92l-.39-.39A101.32,101.32,0,0,1,468,465.69Z" transform="translate(-264.05 -263.3)" style="fill:url(#linear-gradient-3)"/><path d="M324.75,491.39a101.32,101.32,0,0,1,0-143.29,83.41,83.41,0,0,1,9.94-8.5,18.18,18.18,0,0,0,7.22-17,101.34,101.34,0,0,0-42.86,168.8l.49.48a119.49,119.49,0,0,0,165.91,2l.4-.38A101.33,101.33,0,0,1,324.75,491.39Z" transform="translate(-264.05 -263.3)" style="fill:url(#linear-gradient-4)"/><path d="M264.05,406.89a119.09,119.09,0,0,0,32.88,82.31h0a101.33,101.33,0,0,1,45-166.61,18.19,18.19,0,0,0-28.63-12.35A119.34,119.34,0,0,0,264.05,406.89Z" transform="translate(-264.05 -263.3)" style="fill:url(#linear-gradient-5)"/><path d="M468,322.4l-.5-.48a118.88,118.88,0,0,0-13.64-11.61h0a18.16,18.16,0,0,0-23.54,1.85,101.26,101.26,0,0,1,12,153.53,83.15,83.15,0,0,1-117.59,0A101.32,101.32,0,0,0,468,322.4Z" transform="translate(-264.05 -263.3)" style="fill:url(#linear-gradient-6)"/><path d="M442.34,322.4a102,102,0,0,0-12-10.24,18.12,18.12,0,0,0,2.13,27.51,84.74,84.74,0,0,1,9.86,8.43c-.77-.77-1.55-1.52-2.34-2.26.79.74,1.57,1.49,2.34,2.26a83.15,83.15,0,0,1,0,117.59A101.34,101.34,0,0,0,442.34,322.4Z" transform="translate(-264.05 -263.3)" style="fill:url(#linear-gradient-7)"/><path d="M590.31,340.67q-6.88,7.49-6.88,19.82V366h23.93a9.75,9.75,0,0,1,6.87,2.42,8.4,8.4,0,0,1,2.63,6.47,7.93,7.93,0,0,1-2.63,6.07,9.71,9.71,0,0,1-6.87,2.42H583.43v78.85a10.11,10.11,0,0,1-2.83,7.49c-1.89,1.88-4.51,2.83-7.88,2.83a9.72,9.72,0,0,1-7-2.83,10,10,0,0,1-2.93-7.49V383.33h-8.69a9.73,9.73,0,0,1-6.88-2.42,7.93,7.93,0,0,1-2.63-6.07,8.4,8.4,0,0,1,2.63-6.47,9.78,9.78,0,0,1,6.88-2.42h8.69v-3.44q0-14.36,5.76-25.17a41.2,41.2,0,0,1,16.18-16.78,46.89,46.89,0,0,1,23.75-6,10.64,10.64,0,0,1,7.38,2.63,9.07,9.07,0,0,1,0,13.35,10.63,10.63,0,0,1-7.38,2.62Q597.18,333.19,590.31,340.67Z" transform="translate(-264.05 -263.3)" style="fill:#576174"/><path d="M708.53,368.07a54.86,54.86,0,0,0-28.2-7.38,56,56,0,0,0-28.41,7.38,53.13,53.13,0,0,0-20.11,20.22,56.9,56.9,0,0,0-7.28,28.61,60.25,60.25,0,0,0,6.77,28.6,51.06,51.06,0,0,0,18.6,20.12,50.43,50.43,0,0,0,65.41-11.12V462a10.31,10.31,0,1,0,20.62,0V416.9a56.36,56.36,0,0,0-7.38-28.61A54.33,54.33,0,0,0,708.53,368.07Zm2.94,68.13A35.72,35.72,0,0,1,662,449.75a35.72,35.72,0,0,1-12.94-13.55,39.15,39.15,0,0,1-4.75-19.3,39.74,39.74,0,0,1,4.75-19.41A35.5,35.5,0,0,1,662,383.84a35.21,35.21,0,0,1,49.44,13.65,40.58,40.58,0,0,1,4.65,19.41A40,40,0,0,1,711.47,436.2Z" transform="translate(-264.05 -263.3)" style="fill:#576174"/><path d="M925.66,451.87H915.49a13.58,13.58,0,0,1-10.92-5.46,20.69,20.69,0,0,1-4.45-13.54V382.93h20.49a9.71,9.71,0,0,0,6.87-2.43,7.91,7.91,0,0,0,2.63-6.06,8.39,8.39,0,0,0-2.63-6.47,9.71,9.71,0,0,0-6.87-2.43H900.12V336.43a10.11,10.11,0,1,0-20.22,0v29.11h-9.3a9.71,9.71,0,0,0-6.87,2.43,8.39,8.39,0,0,0-2.63,6.47,7.91,7.91,0,0,0,2.63,6.06,9.71,9.71,0,0,0,6.87,2.43h9.3v49.94a42.53,42.53,0,0,0,4.65,20,35.89,35.89,0,0,0,12.84,14.06,33.34,33.34,0,0,0,18.1,5.15h6.94a12.8,12.8,0,0,0,8.59-2.83,9.11,9.11,0,0,0,3.34-7.28,10.56,10.56,0,0,0-2.53-7.28A8,8,0,0,0,925.66,451.87Z" transform="translate(-264.05 -263.3)" style="fill:#576174"/><path d="M805.56,407c-18.82-4.16-26.42-7.19-26.08-16.38s12.17-11.93,21.22-11.93c11,0,19.4,1.63,27.82,8.58,4.77,3.92,10.17,3.5,13.08.56,3.1-3.14,2.29-7.69-.46-11.16-5.89-7.45-19.82-16-40-16-19.05,0-41.45,8.67-41.45,30.53s23.49,29,38.82,31.94,27.5,7.43,27.5,17.39-11.65,14.15-24.26,14.15a43.34,43.34,0,0,1-27.4-9.24c-4.54-3.37-9.44-3.69-13.53-.5-4.56,3.57-4.78,10.53.18,15.29,8.72,8.38,23.14,12.65,41.55,12.65,23.19,0,43.47-10.73,43.47-33.16S824.37,411.15,805.56,407Z" transform="translate(-264.05 -263.3)" style="fill:#576174"/><path d="M1097.22,442.85c-3.61-2.87-8.87-2.75-13.87,2a33.4,33.4,0,0,1-24.61,9.87q-15.57,0-25.27-10.41t-9.7-27.6h-.06q.07-17,9.69-27.32T1058.67,379a33.4,33.4,0,0,1,24.61,9.87c5,4.73,10.26,4.85,13.87,2A8.06,8.06,0,0,0,1098.3,379q-15.77-18.21-39.63-18.2a55.86,55.86,0,0,0-28.3,7.18,50.16,50.16,0,0,0-19.51,20,59.75,59.75,0,0,0-7,28.81h.06a59.8,59.8,0,0,0,7,28.95,50.22,50.22,0,0,0,19.51,20,55.86,55.86,0,0,0,28.3,7.18q23.85,0,39.63-18.2A8.06,8.06,0,0,0,1097.22,442.85Z" transform="translate(-264.05 -263.3)" style="fill:#576174"/><path d="M969.12,343.51a13.47,13.47,0,1,0-9.4-3.95A12.83,12.83,0,0,0,969.12,343.51Zm0,18a10.19,10.19,0,0,0-7.38,2.83,9.94,9.94,0,0,0-2.93,7.48v90a10,10,0,0,0,10.31,10.31,9.9,9.9,0,0,0,7.48-2.93,10.17,10.17,0,0,0,2.83-7.38v-90a9.73,9.73,0,0,0-10.31-10.31Z" transform="translate(-264.05 -263.3)" style="fill:#576174"/></svg>